<svg xmlns="http://www.w3.org/2000/svg" width="144" height="144" viewBox="0 0 144 144" version="1.1">
	<path d="M 4.775 1.559 C 3.276 2.372, 1.589 3.900, 1.025 4.953 C 0.384 6.151, 0 19.296, 0 40.041 C 0 71.248, 0.104 73.170, 1.750 72.479 C 11.948 68.197, 13.691 67.804, 20.586 68.235 C 32.281 68.967, 38.909 73.790, 34.884 78.640 C 33.571 80.222, 32.368 80.152, 24 78.013 C 13.209 75.254, 4 80.471, 4 89.344 C 4 95.533, 6.260 97.779, 18.794 104.051 C 31.001 110.160, 34.656 113.033, 37.120 118.459 C 40.565 126.042, 38.935 134.363, 32.753 140.750 L 29.608 144 44.375 144 L 59.142 144 55.575 140.635 C 42.333 128.146, 45.157 100.529, 61.402 83.657 C 67.456 77.370, 74.124 73.273, 83 70.386 L 89.500 68.273 90.173 59.555 C 91.727 39.406, 96.992 21.827, 107.783 0.750 C 107.994 0.337, 85.517 0.018, 57.833 0.040 C 15.364 0.074, 7.074 0.311, 4.775 1.559 M 123.574 8.250 C 120.978 12.220, 119.249 17.273, 117.162 27 C 114.649 38.706, 111.979 61.268, 112.072 70 L 112.141 76.500 113.968 72.395 C 123.749 50.415, 129.984 24.276, 129.148 8.750 C 128.961 5.276, 125.710 4.984, 123.574 8.250 M 140.682 42.871 C 138.105 51.827, 135.061 59.372, 121.642 90.082 C 115.123 105.001, 113.788 118.217, 118.341 122.769 C 120.712 125.141, 125.960 123.115, 135.750 116.048 L 144 110.092 144 122.213 C 144 128.879, 144.203 134.131, 144.450 133.883 C 144.698 133.635, 144.586 110.853, 144.200 83.257 L 143.500 33.081 140.682 42.871 M 85.087 87.115 C 73.509 95.997, 65.336 117.254, 70.871 124.089 C 72.202 125.732, 73.787 126.400, 76.358 126.400 C 80.714 126.400, 84.529 123.118, 88.363 116.074 C 90.932 111.353, 90.956 111.118, 90.233 97.511 L 89.500 83.730 85.087 87.115 M 1 121.339 L 1 135.679 3.750 136.935 C 8.036 138.892, 16.052 139.326, 20.404 137.836 C 28.089 135.206, 31.069 125.919, 25.981 120.457 C 23.975 118.303, 3.427 107, 1.517 107 C 1.232 107, 1 113.453, 1 121.339 M 94.909 134.513 C 93.584 135.820, 89.826 138.489, 86.559 140.445 L 80.618 144 94.444 144 L 108.270 144 105.527 141.843 C 104.019 140.656, 101.554 137.987, 100.051 135.912 L 97.317 132.138 94.909 134.513" stroke="none" fill="black" fill-rule="evenodd"/>
</svg>